<svg xmlns="http://www.w3.org/2000/svg" width="512" height="512" viewBox="0 0 512 512">
  <defs>
    <!-- Background Radial Gradient -->
    <radialGradient id="vampBg" cx="50%" cy="50%" r="70%">
      <stop offset="0%" stop-color="#2a0005" />
      <stop offset="60%" stop-color="#0e0002" />
      <stop offset="100%" stop-color="#020001" />
    </radialGradient>

    <!-- Blood Moon Glow -->
    <radialGradient id="bloodMoon" cx="50%" cy="40%" r="50%">
      <stop offset="0%" stop-color="#ff1a35" stop-opacity="0.9" />
      <stop offset="40%" stop-color="#990011" stop-opacity="0.5" />
      <stop offset="80%" stop-color="#550009" stop-opacity="0.15" />
      <stop offset="100%" stop-color="#000000" stop-opacity="0" />
    </radialGradient>

    <!-- Red Neon Glow Filter -->
    <filter id="crimsonGlow" x="-30%" y="-30%" width="160%" height="160%">
      <feGaussianBlur stdDeviation="12" result="blur1" />
      <feGaussianBlur stdDeviation="24" result="blur2" />
      <feMerge>
        <feMergeNode in="blur2" />
        <feMergeNode in="blur1" />
        <feMergeNode in="SourceGraphic" />
      </feMerge>
    </filter>

    <!-- Color filter to turn black image into glowing blood red -->
    <filter id="bloodRedFilter">
      <feColorMatrix type="matrix"
        values="0 0 0 0 1.0
                0 0 0 0 0.08
                0 0 0 0 0.18
                1 0 0 0 0" />
    </filter>
  </defs>

  <!-- Background -->
  <rect width="512" height="512" rx="115" fill="url(#vampBg)" />
  <rect width="508" height="508" x="2" y="2" rx="113" fill="none" stroke="#66000c" stroke-width="3" opacity="0.6" />

  <!-- Blood Moon Aura -->
  <circle cx="256" cy="220" r="180" fill="url(#bloodMoon)" />

  <!-- Gothic Corner Accents (like giphy.gif) -->
  <g stroke="#ff1a35" stroke-width="4" fill="none" opacity="0.8">
    <path d="M 40 100 L 40 40 L 100 40" />
    <path d="M 472 100 L 472 40 L 412 40" />
    <path d="M 40 412 L 40 472 L 100 472" />
    <path d="M 472 412 L 472 472 L 412 472" />
    <!-- Dashes -->
    <line x1="40" y1="120" x2="40" y2="150" stroke-dasharray="6 6" />
    <line x1="472" y1="120" x2="472" y2="150" stroke-dasharray="6 6" />
    <line x1="40" y1="392" x2="40" y2="362" stroke-dasharray="6 6" />
    <line x1="472" y1="392" x2="472" y2="362" stroke-dasharray="6 6" />
  </g>

  <!-- Glowing Red Ankh -->
  <g filter="url(#crimsonGlow)" transform="translate(146, 60)">
    <image href="assets/ankh.png" width="220" height="400" filter="url(#bloodRedFilter)" />
  </g>
</svg>
